<svg width="1612" height="222" viewBox="0 0 1612 222" fill="none" xmlns="http://www.w3.org/2000/svg">
<g clip-path="url(#clip0_84_62)">
<rect width="786" height="222" rx="90" fill="white"/>
<rect x="826" width="786" height="222" rx="90" fill="#D6D4D4"/>
<circle cx="143" cy="111" r="89.5" stroke="black"/>
<path d="M274.605 85H268.98L279.222 55.9091H285.727L295.983 85H290.358L282.588 61.875H282.361L274.605 85ZM274.79 73.5938H290.131V77.8267H274.79V73.5938ZM316.342 63.1818L308.572 85H302.89L295.12 63.1818H300.603L305.617 79.3892H305.844L310.873 63.1818H316.342ZM325.553 85.4403C324.171 85.4403 322.925 85.1941 321.817 84.7017C320.719 84.1998 319.848 83.4612 319.204 82.4858C318.569 81.5104 318.252 80.3078 318.252 78.8778C318.252 77.6468 318.479 76.6288 318.934 75.8239C319.388 75.0189 320.009 74.375 320.795 73.892C321.581 73.4091 322.466 73.0445 323.451 72.7983C324.445 72.5426 325.473 72.358 326.533 72.2443C327.812 72.1117 328.849 71.9934 329.644 71.8892C330.44 71.7756 331.017 71.6051 331.377 71.3778C331.746 71.1411 331.931 70.7765 331.931 70.2841V70.1989C331.931 69.1288 331.614 68.3002 330.979 67.7131C330.345 67.1259 329.431 66.8324 328.238 66.8324C326.978 66.8324 325.979 67.107 325.241 67.6562C324.512 68.2055 324.019 68.8542 323.763 69.6023L318.962 68.9205C319.341 67.5947 319.966 66.4867 320.837 65.5966C321.709 64.697 322.774 64.0246 324.033 63.5795C325.293 63.125 326.685 62.8977 328.21 62.8977C329.261 62.8977 330.307 63.0208 331.349 63.267C332.39 63.5133 333.342 63.9205 334.204 64.4886C335.066 65.0473 335.757 65.8097 336.278 66.7756C336.808 67.7415 337.073 68.9489 337.073 70.3977V85H332.13V82.0028H331.96C331.647 82.6089 331.207 83.1771 330.638 83.7074C330.08 84.2282 329.374 84.6496 328.522 84.9716C327.679 85.2841 326.69 85.4403 325.553 85.4403ZM326.888 81.6619C327.921 81.6619 328.816 81.4583 329.573 81.0511C330.331 80.6345 330.913 80.0852 331.32 79.4034C331.737 78.7216 331.945 77.9782 331.945 77.1733V74.6023C331.784 74.7348 331.51 74.858 331.121 74.9716C330.743 75.0852 330.317 75.1847 329.843 75.2699C329.37 75.3551 328.901 75.4309 328.437 75.4972C327.973 75.5634 327.57 75.6203 327.229 75.6676C326.462 75.7718 325.776 75.9422 325.17 76.179C324.564 76.4157 324.085 76.7472 323.735 77.1733C323.385 77.59 323.21 78.1297 323.21 78.7926C323.21 79.7396 323.555 80.4545 324.246 80.9375C324.938 81.4205 325.818 81.6619 326.888 81.6619ZM342.244 85V63.1818H347.386V85H342.244ZM344.829 60.0852C344.014 60.0852 343.314 59.8153 342.727 59.2756C342.139 58.7263 341.846 58.0682 341.846 57.3011C341.846 56.5246 342.139 55.8665 342.727 55.3267C343.314 54.7775 344.014 54.5028 344.829 54.5028C345.653 54.5028 346.353 54.7775 346.931 55.3267C347.518 55.8665 347.812 56.5246 347.812 57.3011C347.812 58.0682 347.518 58.7263 346.931 59.2756C346.353 59.8153 345.653 60.0852 344.829 60.0852ZM357.815 55.9091V85H352.673V55.9091H357.815ZM369.381 85.4403C367.999 85.4403 366.754 85.1941 365.646 84.7017C364.547 84.1998 363.676 83.4612 363.032 82.4858C362.397 81.5104 362.08 80.3078 362.08 78.8778C362.08 77.6468 362.308 76.6288 362.762 75.8239C363.217 75.0189 363.837 74.375 364.623 73.892C365.409 73.4091 366.294 73.0445 367.279 72.7983C368.273 72.5426 369.301 72.358 370.362 72.2443C371.64 72.1117 372.677 71.9934 373.472 71.8892C374.268 71.7756 374.845 71.6051 375.205 71.3778C375.575 71.1411 375.759 70.7765 375.759 70.2841V70.1989C375.759 69.1288 375.442 68.3002 374.808 67.7131C374.173 67.1259 373.259 66.8324 372.066 66.8324C370.807 66.8324 369.808 67.107 369.069 67.6562C368.34 68.2055 367.847 68.8542 367.592 69.6023L362.79 68.9205C363.169 67.5947 363.794 66.4867 364.665 65.5966C365.537 64.697 366.602 64.0246 367.862 63.5795C369.121 63.125 370.513 62.8977 372.038 62.8977C373.089 62.8977 374.135 63.0208 375.177 63.267C376.219 63.5133 377.17 63.9205 378.032 64.4886C378.894 65.0473 379.585 65.8097 380.106 66.7756C380.636 67.7415 380.901 68.9489 380.901 70.3977V85H375.958V82.0028H375.788C375.475 82.6089 375.035 83.1771 374.467 83.7074C373.908 84.2282 373.202 84.6496 372.35 84.9716C371.507 85.2841 370.518 85.4403 369.381 85.4403ZM370.717 81.6619C371.749 81.6619 372.644 81.4583 373.401 81.0511C374.159 80.6345 374.741 80.0852 375.148 79.4034C375.565 78.7216 375.773 77.9782 375.773 77.1733V74.6023C375.612 74.7348 375.338 74.858 374.95 74.9716C374.571 75.0852 374.145 75.1847 373.671 75.2699C373.198 75.3551 372.729 75.4309 372.265 75.4972C371.801 75.5634 371.398 75.6203 371.058 75.6676C370.29 75.7718 369.604 75.9422 368.998 76.179C368.392 76.4157 367.914 76.7472 367.563 77.1733C367.213 77.59 367.038 78.1297 367.038 78.7926C367.038 79.7396 367.383 80.4545 368.075 80.9375C368.766 81.4205 369.647 81.6619 370.717 81.6619ZM386.299 85V55.9091H391.441V66.7898H391.654C391.919 66.2595 392.293 65.696 392.776 65.0994C393.259 64.4934 393.913 63.9773 394.737 63.5511C395.56 63.1155 396.612 62.8977 397.89 62.8977C399.576 62.8977 401.095 63.3286 402.45 64.1903C403.813 65.0426 404.893 66.3068 405.688 67.983C406.493 69.6496 406.896 71.6951 406.896 74.1193C406.896 76.5152 406.503 78.5511 405.717 80.2273C404.931 81.9034 403.861 83.1818 402.506 84.0625C401.152 84.9432 399.618 85.3835 397.904 85.3835C396.654 85.3835 395.617 85.1752 394.793 84.7585C393.969 84.3419 393.307 83.84 392.805 83.2528C392.312 82.6562 391.929 82.0928 391.654 81.5625H391.356V85H386.299ZM391.342 74.0909C391.342 75.5019 391.54 76.7377 391.938 77.7983C392.345 78.8589 392.928 79.6875 393.685 80.2841C394.452 80.8712 395.38 81.1648 396.469 81.1648C397.606 81.1648 398.558 80.8617 399.325 80.2557C400.092 79.6402 400.669 78.8021 401.058 77.7415C401.455 76.6714 401.654 75.4545 401.654 74.0909C401.654 72.7367 401.46 71.5341 401.072 70.483C400.683 69.4318 400.106 68.608 399.339 68.0114C398.572 67.4148 397.615 67.1165 396.469 67.1165C395.371 67.1165 394.438 67.4053 393.671 67.983C392.904 68.5606 392.322 69.3703 391.924 70.4119C391.536 71.4536 391.342 72.6799 391.342 74.0909ZM416.409 55.9091V85H411.267V55.9091H416.409ZM431.356 85.4261C429.168 85.4261 427.279 84.9716 425.688 84.0625C424.107 83.1439 422.89 81.8466 422.038 80.1705C421.185 78.4848 420.759 76.5009 420.759 74.2188C420.759 71.9744 421.185 70.0047 422.038 68.3097C422.899 66.6051 424.102 65.2794 425.646 64.3324C427.189 63.3759 429.003 62.8977 431.086 62.8977C432.431 62.8977 433.7 63.1155 434.893 63.5511C436.095 63.9773 437.156 64.6402 438.075 65.5398C439.003 66.4394 439.732 67.5852 440.262 68.9773C440.792 70.3598 441.058 72.0076 441.058 73.9205V75.4972H423.174V72.0312H436.129C436.119 71.0464 435.906 70.1705 435.489 69.4034C435.073 68.6269 434.49 68.0161 433.742 67.571C433.004 67.1259 432.142 66.9034 431.157 66.9034C430.106 66.9034 429.183 67.1591 428.387 67.6705C427.592 68.1723 426.971 68.8352 426.526 69.6591C426.091 70.4735 425.868 71.3684 425.859 72.3438V75.3693C425.859 76.6383 426.091 77.7273 426.555 78.6364C427.019 79.536 427.667 80.2273 428.501 80.7102C429.334 81.1837 430.309 81.4205 431.427 81.4205C432.175 81.4205 432.852 81.3163 433.458 81.108C434.064 80.8902 434.59 80.5729 435.035 80.1562C435.48 79.7396 435.816 79.2235 436.043 78.608L440.844 79.1477C440.541 80.4167 439.964 81.5246 439.112 82.4716C438.269 83.4091 437.189 84.1383 435.873 84.6591C434.557 85.1705 433.051 85.4261 431.356 85.4261ZM464.847 85.4261C462.716 85.4261 460.869 84.9574 459.307 84.0199C457.744 83.0824 456.532 81.7708 455.67 80.0852C454.818 78.3996 454.392 76.4299 454.392 74.1761C454.392 71.9223 454.818 69.9479 455.67 68.2528C456.532 66.5578 457.744 65.2415 459.307 64.304C460.869 63.3665 462.716 62.8977 464.847 62.8977C466.977 62.8977 468.824 63.3665 470.386 64.304C471.949 65.2415 473.156 66.5578 474.009 68.2528C474.87 69.9479 475.301 71.9223 475.301 74.1761C475.301 76.4299 474.87 78.3996 474.009 80.0852C473.156 81.7708 471.949 83.0824 470.386 84.0199C468.824 84.9574 466.977 85.4261 464.847 85.4261ZM464.875 81.3068C466.03 81.3068 466.996 80.9896 467.773 80.3551C468.549 79.7112 469.127 78.8494 469.506 77.7699C469.894 76.6903 470.088 75.4877 470.088 74.1619C470.088 72.8267 469.894 71.6193 469.506 70.5398C469.127 69.4508 468.549 68.5843 467.773 67.9403C466.996 67.2964 466.03 66.9744 464.875 66.9744C463.691 66.9744 462.706 67.2964 461.92 67.9403C461.144 68.5843 460.562 69.4508 460.173 70.5398C459.795 71.6193 459.605 72.8267 459.605 74.1619C459.605 75.4877 459.795 76.6903 460.173 77.7699C460.562 78.8494 461.144 79.7112 461.92 80.3551C462.706 80.9896 463.691 81.3068 464.875 81.3068ZM484.808 72.2159V85H479.665V63.1818H484.58V66.8892H484.836C485.338 65.6676 486.138 64.697 487.237 63.9773C488.344 63.2576 489.713 62.8977 491.342 62.8977C492.847 62.8977 494.159 63.2197 495.276 63.8636C496.403 64.5076 497.274 65.4403 497.89 66.6619C498.515 67.8835 498.823 69.3655 498.813 71.108V85H493.671V71.9034C493.671 70.4451 493.292 69.304 492.535 68.4801C491.787 67.6562 490.75 67.2443 489.424 67.2443C488.524 67.2443 487.724 67.4432 487.023 67.8409C486.332 68.2292 485.788 68.7926 485.39 69.5312C485.002 70.2699 484.808 71.1648 484.808 72.2159ZM524.857 63.1818V67.1591H512.315V63.1818H524.857ZM515.411 57.9545H520.553V78.4375C520.553 79.1288 520.657 79.6591 520.866 80.0284C521.084 80.3883 521.368 80.6345 521.718 80.767C522.068 80.8996 522.457 80.9659 522.883 80.9659C523.205 80.9659 523.498 80.9422 523.763 80.8949C524.038 80.8475 524.246 80.8049 524.388 80.767L525.255 84.7869C524.98 84.8816 524.587 84.9858 524.076 85.0994C523.574 85.2131 522.959 85.2794 522.229 85.2983C520.942 85.3362 519.781 85.142 518.749 84.7159C517.717 84.2803 516.898 83.608 516.292 82.6989C515.695 81.7898 515.402 80.6534 515.411 79.2898V57.9545ZM534.768 72.2159V85H529.626V55.9091H534.655V66.8892H534.911C535.422 65.6581 536.213 64.6875 537.283 63.9773C538.362 63.2576 539.735 62.8977 541.402 62.8977C542.917 62.8977 544.238 63.215 545.365 63.8494C546.492 64.4839 547.363 65.4119 547.979 66.6335C548.604 67.8551 548.916 69.3466 548.916 71.108V85H543.774V71.9034C543.774 70.4356 543.395 69.2945 542.638 68.4801C541.89 67.6562 540.839 67.2443 539.484 67.2443C538.575 67.2443 537.761 67.4432 537.041 67.8409C536.331 68.2292 535.772 68.7926 535.365 69.5312C534.967 70.2699 534.768 71.1648 534.768 72.2159ZM563.817 85.4261C561.629 85.4261 559.74 84.9716 558.149 84.0625C556.568 83.1439 555.351 81.8466 554.499 80.1705C553.646 78.4848 553.22 76.5009 553.22 74.2188C553.22 71.9744 553.646 70.0047 554.499 68.3097C555.36 66.6051 556.563 65.2794 558.107 64.3324C559.65 63.3759 561.464 62.8977 563.547 62.8977C564.892 62.8977 566.161 63.1155 567.354 63.5511C568.556 63.9773 569.617 64.6402 570.536 65.5398C571.464 66.4394 572.193 67.5852 572.723 68.9773C573.253 70.3598 573.518 72.0076 573.518 73.9205V75.4972H555.635V72.0312H568.589C568.58 71.0464 568.367 70.1705 567.95 69.4034C567.534 68.6269 566.951 68.0161 566.203 67.571C565.464 67.1259 564.603 66.9034 563.618 66.9034C562.567 66.9034 561.643 67.1591 560.848 67.6705C560.053 68.1723 559.432 68.8352 558.987 69.6591C558.552 70.4735 558.329 71.3684 558.32 72.3438V75.3693C558.32 76.6383 558.552 77.7273 559.016 78.6364C559.48 79.536 560.128 80.2273 560.962 80.7102C561.795 81.1837 562.77 81.4205 563.888 81.4205C564.636 81.4205 565.313 81.3163 565.919 81.108C566.525 80.8902 567.051 80.5729 567.496 80.1562C567.941 79.7396 568.277 79.2235 568.504 78.608L573.305 79.1477C573.002 80.4167 572.425 81.5246 571.572 82.4716C570.73 83.4091 569.65 84.1383 568.334 84.6591C567.018 85.1705 565.512 85.4261 563.817 85.4261Z" fill="black"/>
<path d="M278.733 156H269.593L286.235 108.727H296.807L313.472 156H304.332L291.706 118.422H291.336L278.733 156ZM279.033 137.465H303.962V144.343H279.033V137.465ZM319.329 169.295V120.545H327.547V126.408H328.032C328.462 125.547 329.07 124.631 329.855 123.662C330.64 122.677 331.702 121.838 333.04 121.146C334.379 120.438 336.087 120.084 338.165 120.084C340.904 120.084 343.374 120.784 345.574 122.184C347.79 123.569 349.544 125.624 350.837 128.347C352.145 131.056 352.799 134.379 352.799 138.319C352.799 142.212 352.16 145.521 350.883 148.244C349.606 150.968 347.867 153.045 345.666 154.477C343.466 155.908 340.973 156.623 338.188 156.623C336.157 156.623 334.472 156.285 333.133 155.608C331.794 154.931 330.717 154.115 329.901 153.161C329.101 152.191 328.478 151.276 328.032 150.414H327.685V169.295H319.329ZM327.524 138.273C327.524 140.566 327.847 142.574 328.493 144.297C329.155 146.021 330.101 147.367 331.332 148.337C332.579 149.291 334.087 149.768 335.856 149.768C337.703 149.768 339.25 149.275 340.496 148.29C341.742 147.29 342.681 145.928 343.312 144.205C343.958 142.466 344.282 140.489 344.282 138.273C344.282 136.072 343.966 134.118 343.335 132.41C342.704 130.702 341.766 129.363 340.519 128.393C339.273 127.424 337.718 126.939 335.856 126.939C334.071 126.939 332.556 127.409 331.309 128.347C330.063 129.286 329.116 130.602 328.47 132.294C327.839 133.987 327.524 135.98 327.524 138.273ZM359.954 169.295V120.545H368.172V126.408H368.657C369.087 125.547 369.695 124.631 370.48 123.662C371.265 122.677 372.327 121.838 373.665 121.146C375.004 120.438 376.712 120.084 378.79 120.084C381.529 120.084 383.999 120.784 386.199 122.184C388.415 123.569 390.169 125.624 391.462 128.347C392.77 131.056 393.424 134.379 393.424 138.319C393.424 142.212 392.785 145.521 391.508 148.244C390.231 150.968 388.492 153.045 386.291 154.477C384.091 155.908 381.598 156.623 378.813 156.623C376.782 156.623 375.097 156.285 373.758 155.608C372.419 154.931 371.342 154.115 370.526 153.161C369.726 152.191 369.103 151.276 368.657 150.414H368.31V169.295H359.954ZM368.149 138.273C368.149 140.566 368.472 142.574 369.118 144.297C369.78 146.021 370.726 147.367 371.957 148.337C373.204 149.291 374.712 149.768 376.481 149.768C378.328 149.768 379.875 149.275 381.121 148.29C382.367 147.29 383.306 145.928 383.937 144.205C384.583 142.466 384.907 140.489 384.907 138.273C384.907 136.072 384.591 134.118 383.96 132.41C383.329 130.702 382.391 129.363 381.144 128.393C379.898 127.424 378.343 126.939 376.481 126.939C374.696 126.939 373.181 127.409 371.934 128.347C370.688 129.286 369.741 130.602 369.095 132.294C368.464 133.987 368.149 135.98 368.149 138.273ZM408.935 108.727V156H400.579V108.727H408.935ZM433.224 156.692C429.669 156.692 426.599 155.954 424.014 154.477C421.444 152.984 419.467 150.876 418.082 148.152C416.697 145.413 416.004 142.189 416.004 138.48C416.004 134.833 416.697 131.633 418.082 128.878C419.482 126.108 421.436 123.954 423.945 122.415C426.453 120.861 429.4 120.084 432.785 120.084C434.97 120.084 437.032 120.438 438.971 121.146C440.926 121.838 442.649 122.915 444.142 124.377C445.65 125.839 446.835 127.701 447.696 129.963C448.558 132.21 448.989 134.887 448.989 137.996V140.558H419.928V134.926H440.979C440.964 133.325 440.618 131.902 439.941 130.656C439.264 129.394 438.317 128.401 437.102 127.678C435.901 126.955 434.501 126.593 432.901 126.593C431.192 126.593 429.692 127.009 428.4 127.839C427.107 128.655 426.099 129.732 425.376 131.071C424.668 132.394 424.306 133.849 424.291 135.434V140.35C424.291 142.412 424.668 144.182 425.422 145.659C426.176 147.121 427.23 148.244 428.584 149.029C429.938 149.799 431.523 150.183 433.339 150.183C434.555 150.183 435.655 150.014 436.64 149.675C437.625 149.321 438.479 148.806 439.202 148.129C439.925 147.452 440.472 146.613 440.841 145.613L448.643 146.49C448.15 148.552 447.212 150.353 445.827 151.891C444.457 153.415 442.703 154.6 440.564 155.446C438.425 156.277 435.978 156.692 433.224 156.692ZM498.241 121.723C498.026 119.707 497.118 118.137 495.517 117.014C493.932 115.891 491.87 115.329 489.331 115.329C487.546 115.329 486.015 115.598 484.738 116.137C483.461 116.675 482.483 117.406 481.806 118.33C481.129 119.253 480.783 120.307 480.768 121.492C480.768 122.477 480.991 123.331 481.437 124.054C481.899 124.777 482.522 125.393 483.307 125.901C484.092 126.393 484.961 126.808 485.915 127.147C486.869 127.486 487.831 127.77 488.8 128.001L493.232 129.109C495.017 129.525 496.733 130.086 498.38 130.794C500.041 131.502 501.526 132.394 502.834 133.472C504.158 134.549 505.204 135.849 505.974 137.373C506.743 138.896 507.128 140.681 507.128 142.728C507.128 145.498 506.42 147.937 505.004 150.045C503.588 152.138 501.542 153.776 498.864 154.961C496.202 156.131 492.978 156.716 489.193 156.716C485.515 156.716 482.322 156.146 479.614 155.007C476.921 153.869 474.812 152.207 473.289 150.022C471.781 147.837 470.965 145.174 470.842 142.035H479.267C479.39 143.682 479.898 145.051 480.791 146.144C481.683 147.236 482.845 148.052 484.276 148.591C485.723 149.129 487.338 149.398 489.123 149.398C490.985 149.398 492.617 149.121 494.017 148.567C495.433 147.998 496.541 147.213 497.341 146.213C498.141 145.197 498.549 144.013 498.564 142.658C498.549 141.427 498.187 140.412 497.479 139.612C496.771 138.796 495.779 138.119 494.502 137.58C493.24 137.026 491.763 136.534 490.07 136.103L484.692 134.718C480.798 133.718 477.721 132.202 475.459 130.171C473.212 128.124 472.089 125.408 472.089 122.023C472.089 119.237 472.843 116.798 474.351 114.706C475.874 112.613 477.944 110.989 480.56 109.835C483.176 108.666 486.138 108.081 489.447 108.081C492.801 108.081 495.74 108.666 498.264 109.835C500.803 110.989 502.796 112.597 504.242 114.659C505.689 116.706 506.435 119.06 506.481 121.723H498.241ZM532.097 120.545V127.009H511.715V120.545H532.097ZM516.747 112.051H525.103V145.336C525.103 146.459 525.272 147.321 525.611 147.921C525.965 148.506 526.427 148.906 526.996 149.121C527.565 149.337 528.196 149.445 528.889 149.445C529.412 149.445 529.889 149.406 530.32 149.329C530.766 149.252 531.105 149.183 531.335 149.121L532.743 155.654C532.297 155.808 531.659 155.977 530.828 156.162C530.012 156.346 529.012 156.454 527.827 156.485C525.734 156.546 523.849 156.231 522.172 155.538C520.494 154.83 519.163 153.738 518.178 152.261C517.209 150.783 516.732 148.937 516.747 146.721V112.051ZM554.17 156.692C550.707 156.692 547.707 155.931 545.168 154.407C542.628 152.884 540.659 150.753 539.258 148.013C537.873 145.274 537.181 142.074 537.181 138.411C537.181 134.749 537.873 131.54 539.258 128.786C540.659 126.031 542.628 123.892 545.168 122.369C547.707 120.846 550.707 120.084 554.17 120.084C557.632 120.084 560.633 120.846 563.172 122.369C565.711 123.892 567.673 126.031 569.058 128.786C570.458 131.54 571.158 134.749 571.158 138.411C571.158 142.074 570.458 145.274 569.058 148.013C567.673 150.753 565.711 152.884 563.172 154.407C560.633 155.931 557.632 156.692 554.17 156.692ZM554.216 149.999C556.093 149.999 557.663 149.483 558.925 148.452C560.186 147.406 561.125 146.005 561.741 144.251C562.372 142.497 562.687 140.542 562.687 138.388C562.687 136.218 562.372 134.256 561.741 132.502C561.125 130.732 560.186 129.324 558.925 128.278C557.663 127.232 556.093 126.708 554.216 126.708C552.292 126.708 550.692 127.232 549.415 128.278C548.153 129.324 547.206 130.732 546.576 132.502C545.96 134.256 545.652 136.218 545.652 138.388C545.652 140.542 545.96 142.497 546.576 144.251C547.206 146.005 548.153 147.406 549.415 148.452C550.692 149.483 552.292 149.999 554.216 149.999ZM578.25 156V120.545H586.352V126.455H586.722C587.368 124.408 588.476 122.831 590.045 121.723C591.63 120.599 593.439 120.038 595.47 120.038C595.931 120.038 596.447 120.061 597.016 120.107C597.601 120.138 598.086 120.192 598.471 120.268V127.955C598.117 127.832 597.555 127.724 596.786 127.632C596.031 127.524 595.301 127.47 594.593 127.47C593.069 127.47 591.7 127.801 590.484 128.463C589.284 129.109 588.337 130.009 587.645 131.163C586.952 132.317 586.606 133.649 586.606 135.157V156H578.25ZM618.258 156.692C614.703 156.692 611.633 155.954 609.048 154.477C606.478 152.984 604.501 150.876 603.116 148.152C601.731 145.413 601.038 142.189 601.038 138.48C601.038 134.833 601.731 131.633 603.116 128.878C604.516 126.108 606.47 123.954 608.979 122.415C611.487 120.861 614.434 120.084 617.819 120.084C620.004 120.084 622.066 120.438 624.005 121.146C625.96 121.838 627.683 122.915 629.176 124.377C630.684 125.839 631.869 127.701 632.731 129.963C633.592 132.21 634.023 134.887 634.023 137.996V140.558H604.962V134.926H626.014C625.998 133.325 625.652 131.902 624.975 130.656C624.298 129.394 623.351 128.401 622.136 127.678C620.935 126.955 619.535 126.593 617.935 126.593C616.227 126.593 614.726 127.009 613.434 127.839C612.141 128.655 611.133 129.732 610.41 131.071C609.702 132.394 609.34 133.849 609.325 135.434V140.35C609.325 142.412 609.702 144.182 610.456 145.659C611.21 147.121 612.264 148.244 613.618 149.029C614.973 149.799 616.557 150.183 618.373 150.183C619.589 150.183 620.689 150.014 621.674 149.675C622.659 149.321 623.513 148.806 624.236 148.129C624.959 147.452 625.506 146.613 625.875 145.613L633.677 146.49C633.185 148.552 632.246 150.353 630.861 151.891C629.491 153.415 627.737 154.6 625.598 155.446C623.459 156.277 621.012 156.692 618.258 156.692Z" fill="black"/>
<path d="M162.806 53C163.057 53 163.308 53 163.574 53C164.19 60.6164 161.283 66.3073 157.75 70.4285C154.283 74.5213 149.536 78.4907 141.858 77.8884C141.346 70.3811 144.258 65.1122 147.786 61.0005C151.059 57.1686 157.058 53.7588 162.806 53Z" fill="black"/>
<path d="M186.048 132.275C186.048 132.351 186.048 132.417 186.048 132.489C183.891 139.024 180.813 144.625 177.057 149.822C173.628 154.541 169.426 160.891 161.924 160.891C155.441 160.891 151.135 156.723 144.49 156.609C137.462 156.495 133.597 160.094 127.171 161C126.436 161 125.701 161 124.98 161C120.261 160.317 116.453 156.58 113.679 153.213C105.498 143.263 99.1761 130.411 98 113.965C98 112.352 98 110.744 98 109.132C98.498 97.3612 104.217 87.7909 111.82 83.1528C115.832 80.6867 121.347 78.5858 127.489 79.5248C130.121 79.9327 132.81 80.8337 135.167 81.7253C137.4 82.5837 140.194 84.106 142.84 84.0254C144.633 83.9733 146.416 83.039 148.223 82.3798C153.515 80.4686 158.703 78.2776 165.542 79.3067C173.761 80.5492 179.594 84.2009 183.198 89.8349C176.246 94.2596 170.749 100.928 171.688 112.314C172.523 122.657 178.536 128.709 186.048 132.275Z" fill="black"/>
<rect x="826" width="786" height="222" rx="90" fill="white"/>
<circle cx="969" cy="111" r="89.5" stroke="black"/>
<path d="M1100.61 85H1094.98L1105.22 55.9091H1111.73L1121.98 85H1116.36L1108.59 61.875H1108.36L1100.61 85ZM1100.79 73.5938H1116.13V77.8267H1100.79V73.5938ZM1142.34 63.1818L1134.57 85H1128.89L1121.12 63.1818H1126.6L1131.62 79.3892H1131.84L1136.87 63.1818H1142.34ZM1151.55 85.4403C1150.17 85.4403 1148.93 85.1941 1147.82 84.7017C1146.72 84.1998 1145.85 83.4612 1145.2 82.4858C1144.57 81.5104 1144.25 80.3078 1144.25 78.8778C1144.25 77.6468 1144.48 76.6288 1144.93 75.8239C1145.39 75.0189 1146.01 74.375 1146.79 73.892C1147.58 73.4091 1148.47 73.0445 1149.45 72.7983C1150.45 72.5426 1151.47 72.358 1152.53 72.2443C1153.81 72.1117 1154.85 71.9934 1155.64 71.8892C1156.44 71.7756 1157.02 71.6051 1157.38 71.3778C1157.75 71.1411 1157.93 70.7765 1157.93 70.2841V70.1989C1157.93 69.1288 1157.61 68.3002 1156.98 67.7131C1156.34 67.1259 1155.43 66.8324 1154.24 66.8324C1152.98 66.8324 1151.98 67.107 1151.24 67.6562C1150.51 68.2055 1150.02 68.8542 1149.76 69.6023L1144.96 68.9205C1145.34 67.5947 1145.97 66.4867 1146.84 65.5966C1147.71 64.697 1148.77 64.0246 1150.03 63.5795C1151.29 63.125 1152.68 62.8977 1154.21 62.8977C1155.26 62.8977 1156.31 63.0208 1157.35 63.267C1158.39 63.5133 1159.34 63.9205 1160.2 64.4886C1161.07 65.0473 1161.76 65.8097 1162.28 66.7756C1162.81 67.7415 1163.07 68.9489 1163.07 70.3977V85H1158.13V82.0028H1157.96C1157.65 82.6089 1157.21 83.1771 1156.64 83.7074C1156.08 84.2282 1155.37 84.6496 1154.52 84.9716C1153.68 85.2841 1152.69 85.4403 1151.55 85.4403ZM1152.89 81.6619C1153.92 81.6619 1154.82 81.4583 1155.57 81.0511C1156.33 80.6345 1156.91 80.0852 1157.32 79.4034C1157.74 78.7216 1157.95 77.9782 1157.95 77.1733V74.6023C1157.78 74.7348 1157.51 74.858 1157.12 74.9716C1156.74 75.0852 1156.32 75.1847 1155.84 75.2699C1155.37 75.3551 1154.9 75.4309 1154.44 75.4972C1153.97 75.5634 1153.57 75.6203 1153.23 75.6676C1152.46 75.7718 1151.78 75.9422 1151.17 76.179C1150.56 76.4157 1150.09 76.7472 1149.74 77.1733C1149.38 77.59 1149.21 78.1297 1149.21 78.7926C1149.21 79.7396 1149.56 80.4545 1150.25 80.9375C1150.94 81.4205 1151.82 81.6619 1152.89 81.6619ZM1168.24 85V63.1818H1173.39V85H1168.24ZM1170.83 60.0852C1170.01 60.0852 1169.31 59.8153 1168.73 59.2756C1168.14 58.7263 1167.85 58.0682 1167.85 57.3011C1167.85 56.5246 1168.14 55.8665 1168.73 55.3267C1169.31 54.7775 1170.01 54.5028 1170.83 54.5028C1171.65 54.5028 1172.35 54.7775 1172.93 55.3267C1173.52 55.8665 1173.81 56.5246 1173.81 57.3011C1173.81 58.0682 1173.52 58.7263 1172.93 59.2756C1172.35 59.8153 1171.65 60.0852 1170.83 60.0852ZM1183.82 55.9091V85H1178.67V55.9091H1183.82ZM1195.38 85.4403C1194 85.4403 1192.75 85.1941 1191.65 84.7017C1190.55 84.1998 1189.68 83.4612 1189.03 82.4858C1188.4 81.5104 1188.08 80.3078 1188.08 78.8778C1188.08 77.6468 1188.31 76.6288 1188.76 75.8239C1189.22 75.0189 1189.84 74.375 1190.62 73.892C1191.41 73.4091 1192.29 73.0445 1193.28 72.7983C1194.27 72.5426 1195.3 72.358 1196.36 72.2443C1197.64 72.1117 1198.68 71.9934 1199.47 71.8892C1200.27 71.7756 1200.85 71.6051 1201.21 71.3778C1201.57 71.1411 1201.76 70.7765 1201.76 70.2841V70.1989C1201.76 69.1288 1201.44 68.3002 1200.81 67.7131C1200.17 67.1259 1199.26 66.8324 1198.07 66.8324C1196.81 66.8324 1195.81 67.107 1195.07 67.6562C1194.34 68.2055 1193.85 68.8542 1193.59 69.6023L1188.79 68.9205C1189.17 67.5947 1189.79 66.4867 1190.67 65.5966C1191.54 64.697 1192.6 64.0246 1193.86 63.5795C1195.12 63.125 1196.51 62.8977 1198.04 62.8977C1199.09 62.8977 1200.14 63.0208 1201.18 63.267C1202.22 63.5133 1203.17 63.9205 1204.03 64.4886C1204.89 65.0473 1205.58 65.8097 1206.11 66.7756C1206.64 67.7415 1206.9 68.9489 1206.9 70.3977V85H1201.96V82.0028H1201.79C1201.48 82.6089 1201.03 83.1771 1200.47 83.7074C1199.91 84.2282 1199.2 84.6496 1198.35 84.9716C1197.51 85.2841 1196.52 85.4403 1195.38 85.4403ZM1196.72 81.6619C1197.75 81.6619 1198.64 81.4583 1199.4 81.0511C1200.16 80.6345 1200.74 80.0852 1201.15 79.4034C1201.57 78.7216 1201.77 77.9782 1201.77 77.1733V74.6023C1201.61 74.7348 1201.34 74.858 1200.95 74.9716C1200.57 75.0852 1200.14 75.1847 1199.67 75.2699C1199.2 75.3551 1198.73 75.4309 1198.26 75.4972C1197.8 75.5634 1197.4 75.6203 1197.06 75.6676C1196.29 75.7718 1195.6 75.9422 1195 76.179C1194.39 76.4157 1193.91 76.7472 1193.56 77.1733C1193.21 77.59 1193.04 78.1297 1193.04 78.7926C1193.04 79.7396 1193.38 80.4545 1194.07 80.9375C1194.77 81.4205 1195.65 81.6619 1196.72 81.6619ZM1212.3 85V55.9091H1217.44V66.7898H1217.65C1217.92 66.2595 1218.29 65.696 1218.78 65.0994C1219.26 64.4934 1219.91 63.9773 1220.74 63.5511C1221.56 63.1155 1222.61 62.8977 1223.89 62.8977C1225.58 62.8977 1227.1 63.3286 1228.45 64.1903C1229.81 65.0426 1230.89 66.3068 1231.69 67.983C1232.49 69.6496 1232.9 71.6951 1232.9 74.1193C1232.9 76.5152 1232.5 78.5511 1231.72 80.2273C1230.93 81.9034 1229.86 83.1818 1228.51 84.0625C1227.15 84.9432 1225.62 85.3835 1223.9 85.3835C1222.65 85.3835 1221.62 85.1752 1220.79 84.7585C1219.97 84.3419 1219.31 83.84 1218.8 83.2528C1218.31 82.6562 1217.93 82.0928 1217.65 81.5625H1217.36V85H1212.3ZM1217.34 74.0909C1217.34 75.5019 1217.54 76.7377 1217.94 77.7983C1218.35 78.8589 1218.93 79.6875 1219.69 80.2841C1220.45 80.8712 1221.38 81.1648 1222.47 81.1648C1223.61 81.1648 1224.56 80.8617 1225.32 80.2557C1226.09 79.6402 1226.67 78.8021 1227.06 77.7415C1227.46 76.6714 1227.65 75.4545 1227.65 74.0909C1227.65 72.7367 1227.46 71.5341 1227.07 70.483C1226.68 69.4318 1226.11 68.608 1225.34 68.0114C1224.57 67.4148 1223.62 67.1165 1222.47 67.1165C1221.37 67.1165 1220.44 67.4053 1219.67 67.983C1218.9 68.5606 1218.32 69.3703 1217.92 70.4119C1217.54 71.4536 1217.34 72.6799 1217.34 74.0909ZM1242.41 55.9091V85H1237.27V55.9091H1242.41ZM1257.36 85.4261C1255.17 85.4261 1253.28 84.9716 1251.69 84.0625C1250.11 83.1439 1248.89 81.8466 1248.04 80.1705C1247.19 78.4848 1246.76 76.5009 1246.76 74.2188C1246.76 71.9744 1247.19 70.0047 1248.04 68.3097C1248.9 66.6051 1250.1 65.2794 1251.65 64.3324C1253.19 63.3759 1255 62.8977 1257.09 62.8977C1258.43 62.8977 1259.7 63.1155 1260.89 63.5511C1262.1 63.9773 1263.16 64.6402 1264.07 65.5398C1265 66.4394 1265.73 67.5852 1266.26 68.9773C1266.79 70.3598 1267.06 72.0076 1267.06 73.9205V75.4972H1249.17V72.0312H1262.13C1262.12 71.0464 1261.91 70.1705 1261.49 69.4034C1261.07 68.6269 1260.49 68.0161 1259.74 67.571C1259 67.1259 1258.14 66.9034 1257.16 66.9034C1256.11 66.9034 1255.18 67.1591 1254.39 67.6705C1253.59 68.1723 1252.97 68.8352 1252.53 69.6591C1252.09 70.4735 1251.87 71.3684 1251.86 72.3438V75.3693C1251.86 76.6383 1252.09 77.7273 1252.55 78.6364C1253.02 79.536 1253.67 80.2273 1254.5 80.7102C1255.33 81.1837 1256.31 81.4205 1257.43 81.4205C1258.17 81.4205 1258.85 81.3163 1259.46 81.108C1260.06 80.8902 1260.59 80.5729 1261.03 80.1562C1261.48 79.7396 1261.82 79.2235 1262.04 78.608L1266.84 79.1477C1266.54 80.4167 1265.96 81.5246 1265.11 82.4716C1264.27 83.4091 1263.19 84.1383 1261.87 84.6591C1260.56 85.1705 1259.05 85.4261 1257.36 85.4261ZM1290.85 85.4261C1288.72 85.4261 1286.87 84.9574 1285.31 84.0199C1283.74 83.0824 1282.53 81.7708 1281.67 80.0852C1280.82 78.3996 1280.39 76.4299 1280.39 74.1761C1280.39 71.9223 1280.82 69.9479 1281.67 68.2528C1282.53 66.5578 1283.74 65.2415 1285.31 64.304C1286.87 63.3665 1288.72 62.8977 1290.85 62.8977C1292.98 62.8977 1294.82 63.3665 1296.39 64.304C1297.95 65.2415 1299.16 66.5578 1300.01 68.2528C1300.87 69.9479 1301.3 71.9223 1301.3 74.1761C1301.3 76.4299 1300.87 78.3996 1300.01 80.0852C1299.16 81.7708 1297.95 83.0824 1296.39 84.0199C1294.82 84.9574 1292.98 85.4261 1290.85 85.4261ZM1290.88 81.3068C1292.03 81.3068 1293 80.9896 1293.77 80.3551C1294.55 79.7112 1295.13 78.8494 1295.51 77.7699C1295.89 76.6903 1296.09 75.4877 1296.09 74.1619C1296.09 72.8267 1295.89 71.6193 1295.51 70.5398C1295.13 69.4508 1294.55 68.5843 1293.77 67.9403C1293 67.2964 1292.03 66.9744 1290.88 66.9744C1289.69 66.9744 1288.71 67.2964 1287.92 67.9403C1287.14 68.5843 1286.56 69.4508 1286.17 70.5398C1285.79 71.6193 1285.61 72.8267 1285.61 74.1619C1285.61 75.4877 1285.79 76.6903 1286.17 77.7699C1286.56 78.8494 1287.14 79.7112 1287.92 80.3551C1288.71 80.9896 1289.69 81.3068 1290.88 81.3068ZM1310.81 72.2159V85H1305.67V63.1818H1310.58V66.8892H1310.84C1311.34 65.6676 1312.14 64.697 1313.24 63.9773C1314.34 63.2576 1315.71 62.8977 1317.34 62.8977C1318.85 62.8977 1320.16 63.2197 1321.28 63.8636C1322.4 64.5076 1323.27 65.4403 1323.89 66.6619C1324.51 67.8835 1324.82 69.3655 1324.81 71.108V85H1319.67V71.9034C1319.67 70.4451 1319.29 69.304 1318.53 68.4801C1317.79 67.6562 1316.75 67.2443 1315.42 67.2443C1314.52 67.2443 1313.72 67.4432 1313.02 67.8409C1312.33 68.2292 1311.79 68.7926 1311.39 69.5312C1311 70.2699 1310.81 71.1648 1310.81 72.2159ZM1350.86 63.1818V67.1591H1338.31V63.1818H1350.86ZM1341.41 57.9545H1346.55V78.4375C1346.55 79.1288 1346.66 79.6591 1346.87 80.0284C1347.08 80.3883 1347.37 80.6345 1347.72 80.767C1348.07 80.8996 1348.46 80.9659 1348.88 80.9659C1349.2 80.9659 1349.5 80.9422 1349.76 80.8949C1350.04 80.8475 1350.25 80.8049 1350.39 80.767L1351.25 84.7869C1350.98 84.8816 1350.59 84.9858 1350.08 85.0994C1349.57 85.2131 1348.96 85.2794 1348.23 85.2983C1346.94 85.3362 1345.78 85.142 1344.75 84.7159C1343.72 84.2803 1342.9 83.608 1342.29 82.6989C1341.7 81.7898 1341.4 80.6534 1341.41 79.2898V57.9545ZM1360.77 72.2159V85H1355.63V55.9091H1360.65V66.8892H1360.91C1361.42 65.6581 1362.21 64.6875 1363.28 63.9773C1364.36 63.2576 1365.74 62.8977 1367.4 62.8977C1368.92 62.8977 1370.24 63.215 1371.37 63.8494C1372.49 64.4839 1373.36 65.4119 1373.98 66.6335C1374.6 67.8551 1374.92 69.3466 1374.92 71.108V85H1369.77V71.9034C1369.77 70.4356 1369.4 69.2945 1368.64 68.4801C1367.89 67.6562 1366.84 67.2443 1365.48 67.2443C1364.58 67.2443 1363.76 67.4432 1363.04 67.8409C1362.33 68.2292 1361.77 68.7926 1361.37 69.5312C1360.97 70.2699 1360.77 71.1648 1360.77 72.2159ZM1389.82 85.4261C1387.63 85.4261 1385.74 84.9716 1384.15 84.0625C1382.57 83.1439 1381.35 81.8466 1380.5 80.1705C1379.65 78.4848 1379.22 76.5009 1379.22 74.2188C1379.22 71.9744 1379.65 70.0047 1380.5 68.3097C1381.36 66.6051 1382.56 65.2794 1384.11 64.3324C1385.65 63.3759 1387.46 62.8977 1389.55 62.8977C1390.89 62.8977 1392.16 63.1155 1393.35 63.5511C1394.56 63.9773 1395.62 64.6402 1396.54 65.5398C1397.46 66.4394 1398.19 67.5852 1398.72 68.9773C1399.25 70.3598 1399.52 72.0076 1399.52 73.9205V75.4972H1381.63V72.0312H1394.59C1394.58 71.0464 1394.37 70.1705 1393.95 69.4034C1393.53 68.6269 1392.95 68.0161 1392.2 67.571C1391.46 67.1259 1390.6 66.9034 1389.62 66.9034C1388.57 66.9034 1387.64 67.1591 1386.85 67.6705C1386.05 68.1723 1385.43 68.8352 1384.99 69.6591C1384.55 70.4735 1384.33 71.3684 1384.32 72.3438V75.3693C1384.32 76.6383 1384.55 77.7273 1385.02 78.6364C1385.48 79.536 1386.13 80.2273 1386.96 80.7102C1387.79 81.1837 1388.77 81.4205 1389.89 81.4205C1390.64 81.4205 1391.31 81.3163 1391.92 81.108C1392.53 80.8902 1393.05 80.5729 1393.5 80.1562C1393.94 79.7396 1394.28 79.2235 1394.5 78.608L1399.31 79.1477C1399 80.4167 1398.42 81.5246 1397.57 82.4716C1396.73 83.4091 1395.65 84.1383 1394.33 84.6591C1393.02 85.1705 1391.51 85.4261 1389.82 85.4261Z" fill="black"/>
<path d="M1130.33 123.823C1129.95 122.577 1129.42 121.461 1128.74 120.476C1128.08 119.476 1127.28 118.622 1126.34 117.914C1125.42 117.206 1124.35 116.675 1123.15 116.321C1121.95 115.952 1120.64 115.767 1119.23 115.767C1116.69 115.767 1114.43 116.406 1112.44 117.683C1110.46 118.96 1108.9 120.838 1107.76 123.315C1106.63 125.777 1106.07 128.778 1106.07 132.317C1106.07 135.888 1106.63 138.911 1107.76 141.389C1108.88 143.866 1110.44 145.751 1112.44 147.044C1114.44 148.321 1116.77 148.96 1119.41 148.96C1121.81 148.96 1123.89 148.498 1125.65 147.575C1127.42 146.652 1128.78 145.344 1129.73 143.651C1130.69 141.943 1131.16 139.942 1131.16 137.65L1133.1 137.95H1120.27V131.256H1139.45V136.934C1139.45 140.981 1138.59 144.482 1136.86 147.436C1135.14 150.391 1132.77 152.668 1129.75 154.269C1126.74 155.854 1123.28 156.646 1119.37 156.646C1115.01 156.646 1111.19 155.669 1107.9 153.715C1104.62 151.745 1102.06 148.952 1100.21 145.336C1098.38 141.704 1097.46 137.396 1097.46 132.41C1097.46 128.594 1098 125.185 1099.08 122.184C1100.17 119.184 1101.69 116.637 1103.65 114.544C1105.6 112.436 1107.9 110.835 1110.53 109.743C1113.16 108.635 1116.02 108.081 1119.11 108.081C1121.73 108.081 1124.17 108.466 1126.43 109.235C1128.69 109.989 1130.7 111.066 1132.46 112.467C1134.22 113.867 1135.68 115.529 1136.82 117.452C1137.96 119.376 1138.7 121.5 1139.06 123.823H1130.33ZM1162.83 156.692C1159.36 156.692 1156.36 155.931 1153.82 154.407C1151.28 152.884 1149.32 150.753 1147.91 148.013C1146.53 145.274 1145.84 142.074 1145.84 138.411C1145.84 134.749 1146.53 131.54 1147.91 128.786C1149.32 126.031 1151.28 123.892 1153.82 122.369C1156.36 120.846 1159.36 120.084 1162.83 120.084C1166.29 120.084 1169.29 120.846 1171.83 122.369C1174.37 123.892 1176.33 126.031 1177.71 128.786C1179.11 131.54 1179.81 134.749 1179.81 138.411C1179.81 142.074 1179.11 145.274 1177.71 148.013C1176.33 150.753 1174.37 152.884 1171.83 154.407C1169.29 155.931 1166.29 156.692 1162.83 156.692ZM1162.87 149.999C1164.75 149.999 1166.32 149.483 1167.58 148.452C1168.84 147.406 1169.78 146.005 1170.4 144.251C1171.03 142.497 1171.34 140.542 1171.34 138.388C1171.34 136.218 1171.03 134.256 1170.4 132.502C1169.78 130.732 1168.84 129.324 1167.58 128.278C1166.32 127.232 1164.75 126.708 1162.87 126.708C1160.95 126.708 1159.35 127.232 1158.07 128.278C1156.81 129.324 1155.86 130.732 1155.23 132.502C1154.62 134.256 1154.31 136.218 1154.31 138.388C1154.31 140.542 1154.62 142.497 1155.23 144.251C1155.86 146.005 1156.81 147.406 1158.07 148.452C1159.35 149.483 1160.95 149.999 1162.87 149.999ZM1202.37 156.692C1198.91 156.692 1195.91 155.931 1193.37 154.407C1190.83 152.884 1188.86 150.753 1187.46 148.013C1186.08 145.274 1185.38 142.074 1185.38 138.411C1185.38 134.749 1186.08 131.54 1187.46 128.786C1188.86 126.031 1190.83 123.892 1193.37 122.369C1195.91 120.846 1198.91 120.084 1202.37 120.084C1205.83 120.084 1208.83 120.846 1211.37 122.369C1213.91 123.892 1215.88 126.031 1217.26 128.786C1218.66 131.54 1219.36 134.749 1219.36 138.411C1219.36 142.074 1218.66 145.274 1217.26 148.013C1215.88 150.753 1213.91 152.884 1211.37 154.407C1208.83 155.931 1205.83 156.692 1202.37 156.692ZM1202.42 149.999C1204.3 149.999 1205.86 149.483 1207.13 148.452C1208.39 147.406 1209.33 146.005 1209.94 144.251C1210.57 142.497 1210.89 140.542 1210.89 138.388C1210.89 136.218 1210.57 134.256 1209.94 132.502C1209.33 130.732 1208.39 129.324 1207.13 128.278C1205.86 127.232 1204.3 126.708 1202.42 126.708C1200.49 126.708 1198.89 127.232 1197.62 128.278C1196.35 129.324 1195.41 130.732 1194.78 132.502C1194.16 134.256 1193.85 136.218 1193.85 138.388C1193.85 140.542 1194.16 142.497 1194.78 144.251C1195.41 146.005 1196.35 147.406 1197.62 148.452C1198.89 149.483 1200.49 149.999 1202.42 149.999ZM1241.87 170.034C1238.87 170.034 1236.29 169.626 1234.14 168.811C1231.98 168.011 1230.25 166.933 1228.95 165.579C1227.64 164.225 1226.73 162.725 1226.22 161.078L1233.75 159.255C1234.09 159.947 1234.58 160.632 1235.22 161.309C1235.87 162.001 1236.74 162.571 1237.83 163.017C1238.94 163.479 1240.33 163.71 1242.01 163.71C1244.38 163.71 1246.34 163.132 1247.9 161.978C1249.45 160.84 1250.23 158.962 1250.23 156.346V149.629H1249.81C1249.38 150.491 1248.75 151.376 1247.92 152.284C1247.1 153.192 1246.02 153.953 1244.66 154.569C1243.33 155.184 1241.64 155.492 1239.61 155.492C1236.89 155.492 1234.42 154.854 1232.2 153.576C1230 152.284 1228.25 150.36 1226.94 147.806C1225.64 145.236 1225 142.02 1225 138.157C1225 134.264 1225.64 130.979 1226.94 128.301C1228.25 125.608 1230.01 123.569 1232.22 122.184C1234.44 120.784 1236.91 120.084 1239.63 120.084C1241.71 120.084 1243.42 120.438 1244.76 121.146C1246.11 121.838 1247.19 122.677 1247.99 123.662C1248.79 124.631 1249.4 125.547 1249.81 126.408H1250.27V120.545H1258.51V156.577C1258.51 159.609 1257.79 162.117 1256.34 164.102C1254.9 166.087 1252.92 167.572 1250.41 168.557C1247.9 169.542 1245.06 170.034 1241.87 170.034ZM1241.94 148.937C1243.71 148.937 1245.22 148.506 1246.46 147.644C1247.71 146.782 1248.66 145.544 1249.3 143.928C1249.95 142.312 1250.27 140.373 1250.27 138.111C1250.27 135.88 1249.95 133.926 1249.3 132.248C1248.67 130.571 1247.73 129.271 1246.49 128.347C1245.26 127.409 1243.74 126.939 1241.94 126.939C1240.08 126.939 1238.52 127.424 1237.28 128.393C1236.03 129.363 1235.09 130.694 1234.46 132.387C1233.83 134.064 1233.52 135.972 1233.52 138.111C1233.52 140.281 1233.83 142.181 1234.46 143.812C1235.11 145.428 1236.05 146.69 1237.3 147.598C1238.56 148.491 1240.11 148.937 1241.94 148.937ZM1275.43 108.727V156H1267.08V108.727H1275.43ZM1299.72 156.692C1296.17 156.692 1293.1 155.954 1290.51 154.477C1287.94 152.984 1285.96 150.876 1284.58 148.152C1283.19 145.413 1282.5 142.189 1282.5 138.48C1282.5 134.833 1283.19 131.633 1284.58 128.878C1285.98 126.108 1287.93 123.954 1290.44 122.415C1292.95 120.861 1295.9 120.084 1299.28 120.084C1301.47 120.084 1303.53 120.438 1305.47 121.146C1307.42 121.838 1309.15 122.915 1310.64 124.377C1312.15 125.839 1313.33 127.701 1314.19 129.963C1315.06 132.21 1315.49 134.887 1315.49 137.996V140.558H1286.43V134.926H1307.48C1307.46 133.325 1307.12 131.902 1306.44 130.656C1305.76 129.394 1304.82 128.401 1303.6 127.678C1302.4 126.955 1301 126.593 1299.4 126.593C1297.69 126.593 1296.19 127.009 1294.9 127.839C1293.6 128.655 1292.6 129.732 1291.87 131.071C1291.17 132.394 1290.8 133.849 1290.79 135.434V140.35C1290.79 142.412 1291.17 144.182 1291.92 145.659C1292.67 147.121 1293.73 148.244 1295.08 149.029C1296.44 149.799 1298.02 150.183 1299.84 150.183C1301.05 150.183 1302.15 150.014 1303.14 149.675C1304.12 149.321 1304.98 148.806 1305.7 148.129C1306.42 147.452 1306.97 146.613 1307.34 145.613L1315.14 146.49C1314.65 148.552 1313.71 150.353 1312.32 151.891C1310.96 153.415 1309.2 154.6 1307.06 155.446C1304.92 156.277 1302.48 156.692 1299.72 156.692ZM1339.05 156V108.727H1356.78C1360.41 108.727 1363.45 109.404 1365.92 110.759C1368.39 112.113 1370.26 113.975 1371.53 116.344C1372.8 118.699 1373.44 121.376 1373.44 124.377C1373.44 127.409 1372.8 130.102 1371.53 132.456C1370.25 134.81 1368.36 136.665 1365.87 138.019C1363.38 139.358 1360.31 140.027 1356.66 140.027H1344.91V132.987H1355.51C1357.63 132.987 1359.37 132.618 1360.72 131.879C1362.08 131.14 1363.08 130.125 1363.72 128.832C1364.39 127.539 1364.72 126.054 1364.72 124.377C1364.72 122.7 1364.39 121.223 1363.72 119.945C1363.08 118.668 1362.07 117.676 1360.7 116.968C1359.35 116.244 1357.6 115.883 1355.46 115.883H1347.61V156H1339.05ZM1388.87 108.727V156H1380.51V108.727H1388.87ZM1407.66 156.716C1405.41 156.716 1403.39 156.315 1401.59 155.515C1399.81 154.7 1398.39 153.499 1397.34 151.914C1396.31 150.329 1395.8 148.375 1395.8 146.051C1395.8 144.051 1396.17 142.397 1396.9 141.089C1397.64 139.781 1398.65 138.734 1399.93 137.95C1401.21 137.165 1402.64 136.572 1404.24 136.172C1405.86 135.757 1407.53 135.457 1409.25 135.272C1411.33 135.057 1413.02 134.864 1414.31 134.695C1415.6 134.51 1416.54 134.233 1417.12 133.864C1417.72 133.479 1418.02 132.887 1418.02 132.087V131.948C1418.02 130.209 1417.51 128.863 1416.48 127.909C1415.45 126.955 1413.96 126.478 1412.02 126.478C1409.98 126.478 1408.35 126.924 1407.15 127.816C1405.97 128.709 1405.17 129.763 1404.75 130.979L1396.95 129.871C1397.57 127.716 1398.58 125.916 1400 124.469C1401.41 123.008 1403.14 121.915 1405.19 121.192C1407.24 120.453 1409.5 120.084 1411.98 120.084C1413.69 120.084 1415.39 120.284 1417.08 120.684C1418.77 121.084 1420.32 121.746 1421.72 122.669C1423.12 123.577 1424.24 124.816 1425.09 126.385C1425.95 127.955 1426.38 129.917 1426.38 132.271V156H1418.35V151.13H1418.07C1417.56 152.114 1416.85 153.038 1415.92 153.9C1415.02 154.746 1413.87 155.431 1412.48 155.954C1411.12 156.462 1409.51 156.716 1407.66 156.716ZM1409.83 150.576C1411.51 150.576 1412.96 150.245 1414.19 149.583C1415.42 148.906 1416.37 148.013 1417.03 146.906C1417.71 145.798 1418.05 144.59 1418.05 143.282V139.104C1417.79 139.319 1417.34 139.519 1416.71 139.704C1416.09 139.888 1415.4 140.05 1414.63 140.189C1413.86 140.327 1413.1 140.45 1412.35 140.558C1411.59 140.666 1410.94 140.758 1410.38 140.835C1409.14 141.004 1408.02 141.281 1407.04 141.666C1406.05 142.051 1405.28 142.589 1404.71 143.282C1404.14 143.959 1403.85 144.836 1403.85 145.913C1403.85 147.452 1404.41 148.614 1405.54 149.398C1406.66 150.183 1408.09 150.576 1409.83 150.576ZM1438.71 169.295C1437.57 169.295 1436.51 169.203 1435.54 169.018C1434.59 168.849 1433.83 168.649 1433.26 168.418L1435.2 161.909C1436.41 162.263 1437.5 162.432 1438.45 162.417C1439.41 162.402 1440.25 162.101 1440.97 161.517C1441.71 160.947 1442.33 159.993 1442.84 158.654L1443.55 156.739L1430.7 120.545H1439.56L1447.73 147.321H1448.1L1456.3 120.545H1465.18L1450.99 160.293C1450.32 162.171 1449.45 163.779 1448.36 165.118C1447.26 166.472 1445.92 167.503 1444.34 168.211C1442.77 168.934 1440.89 169.295 1438.71 169.295Z" fill="black"/>
<path fill-rule="evenodd" clip-rule="evenodd" d="M932.1 164.612V165L978 138L994.717 128.199L981.415 114.807L932.1 164.612ZM999.338 96.6035L985.031 111L999.338 125.402L1023.9 111L999.338 96.6035ZM994.562 93.806L978 84L932.1 57V57.3876L981.415 107.198L994.562 93.806ZM977.835 110.821L932.1 156.992V111V64.6834L977.835 110.821Z" fill="black"/>
</g>
<defs>
<clipPath id="clip0_84_62">
<rect width="1612" height="222" fill="white"/>
</clipPath>
</defs>
</svg>
