<svg width="113" height="104" viewBox="0 0 113 104" fill="none" xmlns="http://www.w3.org/2000/svg">
<path fill-rule="evenodd" clip-rule="evenodd" d="M5 2H108C109.657 2 111 3.34315 111 5V99C111 100.657 109.657 102 108 102H5C3.34315 102 2 100.657 2 99V5C2 3.34315 3.34315 2 5 2ZM0 5C0 2.23858 2.23858 0 5 0H108C110.761 0 113 2.23858 113 5V99C113 101.761 110.761 104 108 104H5C2.23858 104 0 101.761 0 99V5ZM33.5685 15.2727V88H42.3754V61.4375H58.2844C63.9426 61.4375 68.5827 60.4077 72.2049 58.348C75.8271 56.2647 78.5023 53.4711 80.2305 49.9673C81.9824 46.4635 82.8583 42.5691 82.8583 38.2841C82.8583 33.9991 81.9824 30.1165 80.2305 26.6364C78.4786 23.1562 75.7797 20.3982 72.1339 18.3622C68.5117 16.3026 63.8479 15.2727 58.1424 15.2727H33.5685ZM42.3754 53.625H58.0004C61.9066 53.625 65.0434 52.9503 67.4109 51.6008C69.7783 50.2514 71.4947 48.4285 72.56 46.1321C73.649 43.812 74.1935 41.196 74.1935 38.2841C74.1935 35.3722 73.649 32.768 72.56 30.4716C71.4947 28.1752 69.7665 26.3759 67.3754 25.0739C64.9843 23.7481 61.8119 23.0852 57.8583 23.0852H42.3754V53.625Z" fill="white"/>
</svg>
