<svg width="640" height="427" viewBox="0 0 640 427" fill="none" xmlns="http://www.w3.org/2000/svg">
<path d="M101.997 353H538.015" stroke="white" stroke-width="5"/>
<line x1="104.5" y1="203" x2="104.5" y2="353" stroke="white" stroke-width="5"/>
<line x1="535.5" y1="203" x2="535.5" y2="353" stroke="white" stroke-width="5"/>
<line x1="324.5" y1="203" x2="324.5" y2="353" stroke="white" stroke-width="5"/>
<line x1="433.5" y1="203" x2="433.5" y2="353" stroke="white" stroke-width="5"/>
<line x1="215.5" y1="203" x2="215.5" y2="353" stroke="white" stroke-width="5"/>
<path d="M162.033 261.545V295H157.982V265.793H157.786L149.618 271.216V267.099L157.982 261.545H162.033Z" fill="white"/>
<path d="M257.037 295V292.06L268.08 279.972C269.376 278.556 270.443 277.325 271.282 276.28C272.12 275.223 272.741 274.232 273.144 273.307C273.558 272.37 273.765 271.39 273.765 270.366C273.765 269.19 273.481 268.172 272.915 267.312C272.36 266.451 271.597 265.787 270.628 265.319C269.659 264.851 268.57 264.616 267.361 264.616C266.076 264.616 264.954 264.883 263.996 265.417C263.049 265.94 262.314 266.675 261.791 267.622C261.279 268.57 261.023 269.68 261.023 270.955H257.168C257.168 268.994 257.62 267.274 258.524 265.793C259.428 264.312 260.658 263.157 262.216 262.33C263.784 261.502 265.542 261.088 267.492 261.088C269.452 261.088 271.189 261.502 272.703 262.33C274.217 263.157 275.404 264.273 276.264 265.678C277.124 267.083 277.554 268.646 277.554 270.366C277.554 271.597 277.331 272.8 276.885 273.977C276.449 275.142 275.687 276.443 274.598 277.881C273.52 279.307 272.022 281.05 270.105 283.108L262.591 291.145V291.406H278.142V295H257.037Z" fill="white"/>
<path d="M376.623 295.457C374.466 295.457 372.544 295.087 370.856 294.347C369.179 293.606 367.845 292.577 366.854 291.259C365.874 289.931 365.34 288.39 365.253 286.636H369.37C369.457 287.714 369.827 288.646 370.48 289.43C371.134 290.203 371.989 290.802 373.045 291.227C374.101 291.651 375.272 291.864 376.557 291.864C377.995 291.864 379.269 291.613 380.38 291.112C381.49 290.611 382.362 289.914 382.993 289.021C383.625 288.128 383.941 287.094 383.941 285.918C383.941 284.687 383.636 283.603 383.026 282.667C382.416 281.719 381.523 280.979 380.347 280.445C379.171 279.912 377.733 279.645 376.034 279.645H373.355V276.051H376.034C377.363 276.051 378.528 275.812 379.53 275.332C380.543 274.853 381.333 274.178 381.899 273.307C382.476 272.436 382.765 271.412 382.765 270.236C382.765 269.103 382.514 268.118 382.013 267.279C381.512 266.441 380.804 265.787 379.89 265.319C378.986 264.851 377.918 264.616 376.688 264.616C375.533 264.616 374.444 264.829 373.421 265.254C372.408 265.667 371.58 266.272 370.938 267.067C370.295 267.851 369.947 268.798 369.892 269.909H365.972C366.037 268.156 366.565 266.62 367.556 265.303C368.547 263.974 369.843 262.939 371.444 262.199C373.056 261.458 374.826 261.088 376.753 261.088C378.822 261.088 380.597 261.507 382.078 262.346C383.56 263.174 384.698 264.268 385.493 265.629C386.288 266.991 386.685 268.461 386.685 270.04C386.685 271.924 386.19 273.53 385.199 274.859C384.218 276.187 382.884 277.107 381.196 277.619V277.881C383.309 278.229 384.959 279.128 386.146 280.576C387.333 282.013 387.926 283.794 387.926 285.918C387.926 287.736 387.431 289.37 386.44 290.818C385.46 292.256 384.12 293.388 382.422 294.216C380.723 295.044 378.79 295.457 376.623 295.457Z" fill="white"/>
<path d="M469.422 288.139V284.807L484.124 261.545H486.541V266.707H484.908L473.8 284.284V284.545H493.598V288.139H469.422ZM485.169 295V287.126V285.575V261.545H489.024V295H485.169Z" fill="white"/>
<path d="M86.353 104V67.6364H98.0895C100.67 67.6364 102.824 68.1335 104.553 69.1278C106.293 70.1103 107.601 71.4479 108.477 73.1406C109.364 74.8333 109.808 76.7391 109.808 78.858C109.808 80.9768 109.37 82.8885 108.494 84.593C107.618 86.2857 106.316 87.6293 104.588 88.6236C102.86 89.6061 100.711 90.0973 98.1428 90.0973H88.9098V87.1143H98.054C99.9598 87.1143 101.54 86.7592 102.795 86.049C104.049 85.3269 104.985 84.3445 105.6 83.1016C106.228 81.8587 106.541 80.4441 106.541 78.858C106.541 77.2718 106.228 75.8572 105.6 74.6143C104.985 73.3714 104.044 72.3949 102.777 71.6847C101.522 70.9744 99.9302 70.6193 98.0007 70.6193H89.6733V104H86.353ZM147.415 85.8182C147.415 89.6061 146.74 92.9027 145.391 95.7081C144.041 98.5017 142.183 100.668 139.815 102.207C137.46 103.734 134.749 104.497 131.683 104.497C128.617 104.497 125.901 103.734 123.533 102.207C121.178 100.668 119.325 98.5017 117.976 95.7081C116.638 92.9027 115.969 89.6061 115.969 85.8182C115.969 82.0303 116.638 78.7396 117.976 75.946C119.325 73.1406 121.184 70.9744 123.551 69.4474C125.919 67.9086 128.629 67.1392 131.683 67.1392C134.749 67.1392 137.46 67.9086 139.815 69.4474C142.183 70.9744 144.041 73.1406 145.391 75.946C146.74 78.7396 147.415 82.0303 147.415 85.8182ZM144.183 85.8182C144.183 82.563 143.639 79.7753 142.55 77.4553C141.461 75.1233 139.975 73.3419 138.093 72.1108C136.211 70.8797 134.074 70.2642 131.683 70.2642C129.304 70.2642 127.173 70.8797 125.291 72.1108C123.409 73.3419 121.918 75.1174 120.817 77.4375C119.728 79.7576 119.183 82.5511 119.183 85.8182C119.183 89.0734 119.728 91.861 120.817 94.1811C121.906 96.5012 123.391 98.2827 125.273 99.5256C127.156 100.757 129.292 101.372 131.683 101.372C134.074 101.372 136.211 100.757 138.093 99.5256C139.987 98.2945 141.478 96.5189 142.567 94.1989C143.656 91.867 144.195 89.0734 144.183 85.8182ZM183.765 67.6364V104H180.534L159.049 73.549H158.765V104H155.445V67.6364H158.659L180.214 98.1229H180.498V67.6364H183.765ZM193.486 104H190.006L203.234 67.6364H206.785L220.013 104H216.533L205.134 71.951H204.885L193.486 104ZM195.99 90.0618H214.03V93.0447H195.99V90.0618ZM236.899 104H226.246V67.6364H237.538C241.006 67.6364 243.972 68.3584 246.434 69.8026C248.908 71.2467 250.802 73.3182 252.116 76.017C253.43 78.7159 254.086 81.9534 254.086 85.7294C254.086 89.541 253.412 92.8139 252.062 95.5483C250.725 98.2708 248.772 100.36 246.203 101.816C243.646 103.272 240.545 104 236.899 104ZM229.566 101.017H236.704C239.829 101.017 242.445 100.402 244.552 99.1705C246.659 97.9394 248.239 96.1816 249.292 93.897C250.346 91.6125 250.873 88.8899 250.873 85.7294C250.861 82.5926 250.34 79.8937 249.31 77.6328C248.292 75.3719 246.777 73.6378 244.765 72.4304C242.764 71.223 240.29 70.6193 237.343 70.6193H229.566V101.017ZM275.415 104V101.567L287.294 88.2152C288.845 86.4633 290.094 84.9659 291.04 83.723C291.987 82.4801 292.674 81.3319 293.1 80.2784C293.538 79.2249 293.757 78.13 293.757 76.9936C293.757 75.6087 293.432 74.4013 292.781 73.3714C292.141 72.3298 291.259 71.5189 290.135 70.9389C289.01 70.3589 287.744 70.0689 286.335 70.0689C284.844 70.0689 283.536 70.3885 282.411 71.0277C281.299 71.6669 280.434 72.5428 279.819 73.6555C279.203 74.7682 278.896 76.0466 278.896 77.4908H275.717C275.717 75.4785 276.179 73.697 277.102 72.1463C278.037 70.5838 279.31 69.3587 280.92 68.4709C282.541 67.5831 284.376 67.1392 286.424 67.1392C288.448 67.1392 290.247 67.5772 291.822 68.4531C293.396 69.3172 294.633 70.495 295.533 71.9865C296.432 73.478 296.882 75.147 296.882 76.9936C296.882 78.3312 296.645 79.6274 296.172 80.8821C295.71 82.1368 294.911 83.5336 293.775 85.0724C292.638 86.6113 291.064 88.4934 289.052 90.7188L280.032 100.786V101.017H298.018V104H275.415ZM317.226 104.497C314.669 104.497 312.485 103.763 310.674 102.295C308.875 100.816 307.49 98.6792 306.519 95.8857C305.56 93.0921 305.081 89.7363 305.081 85.8182C305.081 81.9119 305.56 78.5679 306.519 75.7862C307.49 72.9927 308.881 70.8561 310.692 69.3764C312.515 67.8849 314.693 67.1392 317.226 67.1392C319.759 67.1392 321.931 67.8849 323.742 69.3764C325.565 70.8561 326.956 72.9927 327.915 75.7862C328.885 78.5679 329.371 81.9119 329.371 85.8182C329.371 89.7363 328.885 93.0921 327.915 95.8857C326.956 98.6792 325.571 100.816 323.76 102.295C321.961 103.763 319.782 104.497 317.226 104.497ZM317.226 101.514C320.031 101.514 322.221 100.147 323.795 97.4126C325.37 94.6664 326.157 90.8016 326.157 85.8182C326.157 82.5038 325.796 79.6747 325.074 77.331C324.363 74.9754 323.34 73.1761 322.002 71.9332C320.676 70.6903 319.084 70.0689 317.226 70.0689C314.444 70.0689 312.26 71.4538 310.674 74.2237C309.088 76.9818 308.295 80.8466 308.295 85.8182C308.295 89.1326 308.65 91.9616 309.36 94.3054C310.082 96.6491 311.106 98.4366 312.432 99.6676C313.769 100.899 315.367 101.514 317.226 101.514ZM347.89 104.497C345.333 104.497 343.149 103.763 341.338 102.295C339.539 100.816 338.154 98.6792 337.183 95.8857C336.224 93.0921 335.745 89.7363 335.745 85.8182C335.745 81.9119 336.224 78.5679 337.183 75.7862C338.154 72.9927 339.545 70.8561 341.356 69.3764C343.179 67.8849 345.357 67.1392 347.89 67.1392C350.423 67.1392 352.595 67.8849 354.406 69.3764C356.229 70.8561 357.62 72.9927 358.579 75.7862C359.549 78.5679 360.035 81.9119 360.035 85.8182C360.035 89.7363 359.549 93.0921 358.579 95.8857C357.62 98.6792 356.235 100.816 354.424 102.295C352.625 103.763 350.447 104.497 347.89 104.497ZM347.89 101.514C350.695 101.514 352.885 100.147 354.459 97.4126C356.034 94.6664 356.821 90.8016 356.821 85.8182C356.821 82.5038 356.46 79.6747 355.738 77.331C355.028 74.9754 354.004 73.1761 352.666 71.9332C351.34 70.6903 349.748 70.0689 347.89 70.0689C345.108 70.0689 342.924 71.4538 341.338 74.2237C339.752 76.9818 338.959 80.8466 338.959 85.8182C338.959 89.1326 339.314 91.9616 340.024 94.3054C340.746 96.6491 341.77 98.4366 343.096 99.6676C344.433 100.899 346.031 101.514 347.89 101.514ZM382.105 67.6364H385.94L399.133 99.3125H399.452L412.645 67.6364H416.48V104H413.355V74.6499H413.071L400.802 104H397.783L385.514 74.6499H385.23V104H382.105V67.6364ZM429.468 67.6364V104H426.148V67.6364H429.468ZM439.136 104V67.6364H460.23V70.6193H442.456V84.3089H459.111V87.2919H442.456V101.017H460.585V104H439.136ZM482.602 67.6364H485.922V93.8615C485.911 96.2289 485.484 98.2057 484.644 99.7919C483.804 101.366 482.644 102.544 481.164 103.325C479.684 104.107 477.986 104.497 476.068 104.497C474.186 104.497 472.505 104.148 471.025 103.45C469.546 102.751 468.38 101.769 467.528 100.502C466.687 99.2356 466.267 97.75 466.267 96.0455H469.534C469.534 97.1226 469.818 98.0755 470.386 98.9041C470.954 99.7209 471.73 100.36 472.712 100.822C473.706 101.283 474.825 101.514 476.068 101.514C477.358 101.514 478.489 101.242 479.459 100.697C480.442 100.153 481.211 99.3184 481.768 98.1939C482.324 97.0575 482.602 95.6134 482.602 93.8615V67.6364ZM515.326 76.7273C515.125 74.7031 514.231 73.0933 512.645 71.8977C511.059 70.7022 509.064 70.1044 506.661 70.1044C504.968 70.1044 503.477 70.3944 502.187 70.9744C500.908 71.5545 499.902 72.3594 499.168 73.3892C498.446 74.4072 498.085 75.5672 498.085 76.8693C498.085 77.8281 498.292 78.6686 498.706 79.3906C499.121 80.1127 499.677 80.7341 500.376 81.255C501.086 81.764 501.867 82.2019 502.719 82.5689C503.583 82.9358 504.453 83.2436 505.329 83.4922L509.165 84.593C510.325 84.9126 511.485 85.321 512.645 85.8182C513.805 86.3153 514.864 86.9427 515.823 87.7003C516.794 88.446 517.569 89.3634 518.149 90.4524C518.741 91.5296 519.037 92.8258 519.037 94.3409C519.037 96.2822 518.534 98.0282 517.528 99.5788C516.521 101.129 515.077 102.361 513.195 103.272C511.313 104.172 509.058 104.621 506.43 104.621C503.956 104.621 501.808 104.213 499.985 103.396C498.162 102.568 496.73 101.425 495.688 99.9695C494.646 98.5135 494.06 96.8267 493.93 94.9091H497.339C497.458 96.3414 497.931 97.5547 498.76 98.549C499.588 99.5433 500.666 100.301 501.991 100.822C503.317 101.331 504.797 101.585 506.43 101.585C508.241 101.585 509.851 101.283 511.26 100.68C512.68 100.064 513.793 99.2119 514.598 98.1229C515.415 97.022 515.823 95.7436 515.823 94.2876C515.823 93.0566 515.503 92.0268 514.864 91.1982C514.225 90.3577 513.331 89.6534 512.183 89.0852C511.047 88.517 509.727 88.014 508.224 87.576L503.873 86.2976C501.021 85.4453 498.807 84.2675 497.233 82.7642C495.658 81.2609 494.871 79.3433 494.871 77.0114C494.871 75.0582 495.392 73.3419 496.434 71.8622C497.487 70.3707 498.908 69.2107 500.695 68.3821C502.494 67.5417 504.513 67.1214 506.75 67.1214C509.011 67.1214 511.011 67.5357 512.751 68.3643C514.491 69.1929 515.87 70.3352 516.888 71.7912C517.918 73.2353 518.469 74.8807 518.54 76.7273H515.326ZM555.507 79H552.169C551.92 77.7571 551.47 76.6089 550.819 75.5554C550.18 74.4901 549.375 73.5608 548.405 72.7678C547.434 71.9747 546.333 71.3591 545.102 70.9212C543.871 70.4832 542.539 70.2642 541.107 70.2642C538.811 70.2642 536.715 70.862 534.822 72.0575C532.939 73.2531 531.43 75.0109 530.294 77.331C529.169 79.6392 528.607 82.4683 528.607 85.8182C528.607 89.1918 529.169 92.0327 530.294 94.3409C531.43 96.6491 532.939 98.401 534.822 99.5966C536.715 100.78 538.811 101.372 541.107 101.372C542.539 101.372 543.871 101.153 545.102 100.715C546.333 100.277 547.434 99.6676 548.405 98.8864C549.375 98.0933 550.18 97.1641 550.819 96.0987C551.47 95.0334 551.92 93.8793 552.169 92.6364H555.507C555.211 94.3054 554.655 95.862 553.838 97.3061C553.033 98.7384 552.003 99.9931 550.748 101.07C549.506 102.147 548.073 102.988 546.452 103.592C544.83 104.195 543.048 104.497 541.107 104.497C538.053 104.497 535.342 103.734 532.975 102.207C530.608 100.668 528.749 98.5017 527.4 95.7081C526.062 92.9145 525.393 89.6179 525.393 85.8182C525.393 82.0185 526.062 78.7218 527.4 75.9283C528.749 73.1347 530.608 70.9744 532.975 69.4474C535.342 67.9086 538.053 67.1392 541.107 67.1392C543.048 67.1392 544.83 67.4411 546.452 68.0447C548.073 68.6366 549.506 69.477 550.748 70.5661C552.003 71.6432 553.033 72.898 553.838 74.3303C554.655 75.7625 555.211 77.3191 555.507 79ZM124.756 165V128.636H136.493C139.073 128.636 141.228 129.134 142.956 130.128C144.696 131.11 146.004 132.448 146.88 134.141C147.768 135.833 148.212 137.739 148.212 139.858C148.212 141.977 147.774 143.888 146.898 145.593C146.022 147.286 144.72 148.629 142.991 149.624C141.263 150.606 139.115 151.097 136.546 151.097H127.313V148.114H136.457C138.363 148.114 139.943 147.759 141.198 147.049C142.453 146.327 143.388 145.344 144.003 144.102C144.631 142.859 144.945 141.444 144.945 139.858C144.945 138.272 144.631 136.857 144.003 135.614C143.388 134.371 142.447 133.395 141.18 132.685C139.926 131.974 138.333 131.619 136.404 131.619H128.077V165H124.756ZM152.349 165H148.869L162.097 128.636H165.648L178.876 165H175.396L163.996 132.951H163.748L152.349 165ZM154.852 151.062H172.892V154.045H154.852V151.062ZM185.108 165V128.636H196.844C199.425 128.636 201.579 129.104 203.307 130.039C205.047 130.962 206.355 132.247 207.231 133.892C208.119 135.526 208.563 137.402 208.563 139.521C208.563 141.639 208.119 143.51 207.231 145.131C206.355 146.753 205.053 148.02 203.325 148.931C201.597 149.843 199.454 150.298 196.898 150.298H186.901V147.262H196.809C198.703 147.262 200.277 146.948 201.532 146.321C202.798 145.694 203.739 144.8 204.355 143.64C204.982 142.48 205.296 141.107 205.296 139.521C205.296 137.934 204.982 136.549 204.355 135.366C203.728 134.17 202.781 133.247 201.514 132.596C200.259 131.945 198.673 131.619 196.756 131.619H188.428V165H185.108ZM201.141 148.594L210.09 165H206.255L197.395 148.594H201.141ZM216.651 165V128.636H219.971V148.221H220.291L238.046 128.636H242.414L226.878 145.451L242.343 165H238.295L224.818 147.759L219.971 153.192V165H216.651ZM252.002 128.636V165H248.682V128.636H252.002ZM289.991 128.636V165H286.759L265.275 134.549H264.991V165H261.67V128.636H264.884L286.44 159.123H286.724V128.636H289.991ZM324.818 140C324.487 138.793 324.002 137.662 323.362 136.609C322.723 135.543 321.93 134.614 320.983 133.821C320.048 133.016 318.965 132.389 317.734 131.939C316.515 131.489 315.153 131.264 313.65 131.264C311.283 131.264 309.164 131.88 307.294 133.111C305.423 134.342 303.944 136.117 302.855 138.438C301.777 140.758 301.239 143.551 301.239 146.818C301.239 150.073 301.783 152.861 302.872 155.181C303.961 157.501 305.453 159.283 307.347 160.526C309.253 161.757 311.431 162.372 313.881 162.372C316.118 162.372 318.095 161.875 319.811 160.881C321.528 159.886 322.865 158.466 323.824 156.619C324.795 154.773 325.268 152.577 325.245 150.032L326.31 150.369H314.662V147.386H328.476V150.369C328.476 153.471 327.849 156.152 326.594 158.413C325.339 160.674 323.617 162.42 321.427 163.651C319.237 164.882 316.722 165.497 313.881 165.497C310.709 165.497 307.933 164.734 305.554 163.207C303.174 161.668 301.322 159.502 299.996 156.708C298.682 153.903 298.025 150.606 298.025 146.818C298.025 143.965 298.404 141.391 299.161 139.094C299.919 136.798 300.99 134.833 302.375 133.2C303.772 131.566 305.423 130.317 307.329 129.453C309.235 128.577 311.342 128.139 313.65 128.139C315.639 128.139 317.456 128.453 319.101 129.08C320.758 129.708 322.214 130.572 323.469 131.673C324.736 132.762 325.771 134.022 326.576 135.455C327.393 136.875 327.943 138.39 328.228 140H324.818ZM366.531 146.818C366.531 150.606 365.856 153.903 364.507 156.708C363.157 159.502 361.299 161.668 358.932 163.207C356.576 164.734 353.865 165.497 350.799 165.497C347.734 165.497 345.017 164.734 342.65 163.207C340.294 161.668 338.441 159.502 337.092 156.708C335.754 153.903 335.086 150.606 335.086 146.818C335.086 143.03 335.754 139.74 337.092 136.946C338.441 134.141 340.3 131.974 342.667 130.447C345.035 128.909 347.745 128.139 350.799 128.139C353.865 128.139 356.576 128.909 358.932 130.447C361.299 131.974 363.157 134.141 364.507 136.946C365.856 139.74 366.531 143.03 366.531 146.818ZM363.299 146.818C363.299 143.563 362.755 140.775 361.666 138.455C360.577 136.123 359.091 134.342 357.209 133.111C355.327 131.88 353.191 131.264 350.799 131.264C348.42 131.264 346.29 131.88 344.407 133.111C342.525 134.342 341.034 136.117 339.933 138.438C338.844 140.758 338.299 143.551 338.299 146.818C338.299 150.073 338.844 152.861 339.933 155.181C341.022 157.501 342.508 159.283 344.39 160.526C346.272 161.757 348.408 162.372 350.799 162.372C353.191 162.372 355.327 161.757 357.209 160.526C359.103 159.295 360.595 157.519 361.684 155.199C362.773 152.867 363.311 150.073 363.299 146.818ZM380.882 165L370.921 128.636H374.295L382.533 159.904H382.817L391.056 128.636H394.891L403.13 159.904H403.414L411.653 128.636H415.044L405.083 165H401.532L393.098 134.158H392.867L384.433 165H380.882ZM417.636 128.636H421.472L432.249 145.895H432.569L443.347 128.636H447.182L434.06 149.251V165H430.758V149.251L417.636 128.636ZM480.19 140H476.851C476.603 138.757 476.153 137.609 475.502 136.555C474.863 135.49 474.058 134.561 473.087 133.768C472.117 132.975 471.016 132.359 469.785 131.921C468.554 131.483 467.222 131.264 465.79 131.264C463.493 131.264 461.398 131.862 459.504 133.058C457.622 134.253 456.113 136.011 454.976 138.331C453.852 140.639 453.29 143.468 453.29 146.818C453.29 150.192 453.852 153.033 454.976 155.341C456.113 157.649 457.622 159.401 459.504 160.597C461.398 161.78 463.493 162.372 465.79 162.372C467.222 162.372 468.554 162.153 469.785 161.715C471.016 161.277 472.117 160.668 473.087 159.886C474.058 159.093 474.863 158.164 475.502 157.099C476.153 156.033 476.603 154.879 476.851 153.636H480.19C479.894 155.305 479.337 156.862 478.521 158.306C477.716 159.738 476.686 160.993 475.431 162.07C474.188 163.147 472.756 163.988 471.134 164.592C469.512 165.195 467.731 165.497 465.79 165.497C462.736 165.497 460.025 164.734 457.658 163.207C455.29 161.668 453.432 159.502 452.082 156.708C450.745 153.915 450.076 150.618 450.076 146.818C450.076 143.018 450.745 139.722 452.082 136.928C453.432 134.135 455.29 131.974 457.658 130.447C460.025 128.909 462.736 128.139 465.79 128.139C467.731 128.139 469.512 128.441 471.134 129.045C472.756 129.637 474.188 130.477 475.431 131.566C476.686 132.643 477.716 133.898 478.521 135.33C479.337 136.763 479.894 138.319 480.19 140ZM487.989 165V128.636H491.309V145.309H511.941V128.636H515.261V165H511.941V148.292H491.309V165H487.989Z" fill="white"/>
</svg>
