<svg width="113" height="104" viewBox="0 0 113 104" fill="none" xmlns="http://www.w3.org/2000/svg">
<rect x="1" y="1" width="111" height="102" rx="4" stroke="white" stroke-width="2"/>
<line x1="9.34722" y1="92.2425" x2="103.347" y2="11.2425" stroke="white" stroke-width="2"/>
<path d="M38.6778 24.8294C39.6307 22.1859 43.3693 22.1859 44.3222 24.8294L54.5526 53.2105L53.0179 54.5L51.5 55.7753L46.4716 60H30.2703C28.192 60 26.7433 57.9379 27.4481 55.9827L38.6778 24.8294Z" fill="white"/>
<path d="M72.6907 79.5042C73.6637 82.1005 77.3361 82.1005 78.3091 79.5042L90.0025 48.3028C90.7374 46.3416 89.2876 44.25 87.1933 44.25H64.9999L63.5 45.6165L60.8838 48L72.6907 79.5042Z" fill="white"/>
<circle cx="41.5" cy="16.5" r="5.5" fill="white"/>
<path d="M81.0005 37.4998C81.0005 40.5374 78.538 42.9998 75.5005 42.9998C73.2819 42.9998 71.3701 41.6862 70.5005 39.7943C70.1795 39.096 71.5 38.819 71.5 38C71.5 37.3682 70.8044 39.065 71.0005 38.5C71.1851 37.9679 70.921 38.6937 71.2502 38.25C71.6791 38.1136 72.0187 37.3389 72.5 37C72.9995 36.6482 73.3977 35.8667 74.0005 35.6962C74.4773 35.5613 75.4805 33.9999 76.0005 33.9999C76.9822 33.9999 77.4038 32.257 78.2017 32.7078C79.8725 33.6516 81.0005 35.444 81.0005 37.4998Z" fill="white"/>
</svg>
